<?xml version="1.0" encoding="utf-8" standalone="no"?>
<!DOCTYPE svg PUBLIC "-//W3C//DTD SVG 1.1//EN"
  "http://www.w3.org/Graphics/SVG/1.1/DTD/svg11.dtd">
<svg xmlns:xlink="http://www.w3.org/1999/xlink" width="1440pt" height="720pt" viewBox="0 0 1440 720" xmlns="http://www.w3.org/2000/svg" version="1.1">
 <metadata>
  <rdf:RDF xmlns:dc="http://purl.org/dc/elements/1.1/" xmlns:cc="http://creativecommons.org/ns#" xmlns:rdf="http://www.w3.org/1999/02/22-rdf-syntax-ns#">
   <cc:Work>
    <dc:type rdf:resource="http://purl.org/dc/dcmitype/StillImage"/>
    <dc:date>2024-08-08T04:04:59.746016</dc:date>
    <dc:format>image/svg+xml</dc:format>
    <dc:creator>
     <cc:Agent>
      <dc:title>Matplotlib v3.8.4, https://matplotlib.org/</dc:title>
     </cc:Agent>
    </dc:creator>
   </cc:Work>
  </rdf:RDF>
 </metadata>
 <defs>
  <style type="text/css">*{stroke-linejoin: round; stroke-linecap: butt}</style>
 </defs>
 <g id="figure_1">
  <g id="patch_1">
   <path d="M 0 720 
L 1440 720 
L 1440 0 
L 0 0 
z
" style="fill: #ffffff"/>
  </g>
  <g id="axes_1">
   <g id="patch_2">
    <path d="M 33.64 692.12 
L 706.68 692.12 
L 706.68 14.76 
L 33.64 14.76 
z
" style="fill: #ffffff"/>
   </g>
   <g id="matplotlib.axis_1">
    <g id="xtick_1">
     <g id="line2d_1">
      <defs>
       <path id="m2fc02b0ae8" d="M 0 0 
L 0 3.5 
" style="stroke: #000000; stroke-width: 0.8"/>
      </defs>
      <g>
       <use xlink:href="#m2fc02b0ae8" x="57.034439" y="692.12" style="stroke: #000000; stroke-width: 0.8"/>
      </g>
     </g>
     <g id="text_1">
      <!-- 0 -->
      <g transform="translate(53.853189 706.718438) scale(0.1 -0.1)">
       <defs>
        <path id="DejaVuSans-30" d="M 2034 4250 
Q 1547 4250 1301 3770 
Q 1056 3291 1056 2328 
Q 1056 1369 1301 889 
Q 1547 409 2034 409 
Q 2525 409 2770 889 
Q 3016 1369 3016 2328 
Q 3016 3291 2770 3770 
Q 2525 4250 2034 4250 
z
M 2034 4750 
Q 2819 4750 3233 4129 
Q 3647 3509 3647 2328 
Q 3647 1150 3233 529 
Q 2819 -91 2034 -91 
Q 1250 -91 836 529 
Q 422 1150 422 2328 
Q 422 3509 836 4129 
Q 1250 4750 2034 4750 
z
" transform="scale(0.015625)"/>
       </defs>
       <use xlink:href="#DejaVuSans-30"/>
      </g>
     </g>
    </g>
    <g id="xtick_2">
     <g id="line2d_2">
      <g>
       <use xlink:href="#m2fc02b0ae8" x="201.000214" y="692.12" style="stroke: #000000; stroke-width: 0.8"/>
      </g>
     </g>
     <g id="text_2">
      <!-- 20 -->
      <g transform="translate(194.637714 706.718438) scale(0.1 -0.1)">
       <defs>
        <path id="DejaVuSans-32" d="M 1228 531 
L 3431 531 
L 3431 0 
L 469 0 
L 469 531 
Q 828 903 1448 1529 
Q 2069 2156 2228 2338 
Q 2531 2678 2651 2914 
Q 2772 3150 2772 3378 
Q 2772 3750 2511 3984 
Q 2250 4219 1831 4219 
Q 1534 4219 1204 4116 
Q 875 4013 500 3803 
L 500 4441 
Q 881 4594 1212 4672 
Q 1544 4750 1819 4750 
Q 2544 4750 2975 4387 
Q 3406 4025 3406 3419 
Q 3406 3131 3298 2873 
Q 3191 2616 2906 2266 
Q 2828 2175 2409 1742 
Q 1991 1309 1228 531 
z
" transform="scale(0.015625)"/>
       </defs>
       <use xlink:href="#DejaVuSans-32"/>
       <use xlink:href="#DejaVuSans-30" x="63.623047"/>
      </g>
     </g>
    </g>
    <g id="xtick_3">
     <g id="line2d_3">
      <g>
       <use xlink:href="#m2fc02b0ae8" x="344.965989" y="692.12" style="stroke: #000000; stroke-width: 0.8"/>
      </g>
     </g>
     <g id="text_3">
      <!-- 40 -->
      <g transform="translate(338.603489 706.718438) scale(0.1 -0.1)">
       <defs>
        <path id="DejaVuSans-34" d="M 2419 4116 
L 825 1625 
L 2419 1625 
L 2419 4116 
z
M 2253 4666 
L 3047 4666 
L 3047 1625 
L 3713 1625 
L 3713 1100 
L 3047 1100 
L 3047 0 
L 2419 0 
L 2419 1100 
L 313 1100 
L 313 1709 
L 2253 4666 
z
" transform="scale(0.015625)"/>
       </defs>
       <use xlink:href="#DejaVuSans-34"/>
       <use xlink:href="#DejaVuSans-30" x="63.623047"/>
      </g>
     </g>
    </g>
    <g id="xtick_4">
     <g id="line2d_4">
      <g>
       <use xlink:href="#m2fc02b0ae8" x="488.931765" y="692.12" style="stroke: #000000; stroke-width: 0.8"/>
      </g>
     </g>
     <g id="text_4">
      <!-- 60 -->
      <g transform="translate(482.569265 706.718438) scale(0.1 -0.1)">
       <defs>
        <path id="DejaVuSans-36" d="M 2113 2584 
Q 1688 2584 1439 2293 
Q 1191 2003 1191 1497 
Q 1191 994 1439 701 
Q 1688 409 2113 409 
Q 2538 409 2786 701 
Q 3034 994 3034 1497 
Q 3034 2003 2786 2293 
Q 2538 2584 2113 2584 
z
M 3366 4563 
L 3366 3988 
Q 3128 4100 2886 4159 
Q 2644 4219 2406 4219 
Q 1781 4219 1451 3797 
Q 1122 3375 1075 2522 
Q 1259 2794 1537 2939 
Q 1816 3084 2150 3084 
Q 2853 3084 3261 2657 
Q 3669 2231 3669 1497 
Q 3669 778 3244 343 
Q 2819 -91 2113 -91 
Q 1303 -91 875 529 
Q 447 1150 447 2328 
Q 447 3434 972 4092 
Q 1497 4750 2381 4750 
Q 2619 4750 2861 4703 
Q 3103 4656 3366 4563 
z
" transform="scale(0.015625)"/>
       </defs>
       <use xlink:href="#DejaVuSans-36"/>
       <use xlink:href="#DejaVuSans-30" x="63.623047"/>
      </g>
     </g>
    </g>
    <g id="xtick_5">
     <g id="line2d_5">
      <g>
       <use xlink:href="#m2fc02b0ae8" x="632.89754" y="692.12" style="stroke: #000000; stroke-width: 0.8"/>
      </g>
     </g>
     <g id="text_5">
      <!-- 80 -->
      <g transform="translate(626.53504 706.718438) scale(0.1 -0.1)">
       <defs>
        <path id="DejaVuSans-38" d="M 2034 2216 
Q 1584 2216 1326 1975 
Q 1069 1734 1069 1313 
Q 1069 891 1326 650 
Q 1584 409 2034 409 
Q 2484 409 2743 651 
Q 3003 894 3003 1313 
Q 3003 1734 2745 1975 
Q 2488 2216 2034 2216 
z
M 1403 2484 
Q 997 2584 770 2862 
Q 544 3141 544 3541 
Q 544 4100 942 4425 
Q 1341 4750 2034 4750 
Q 2731 4750 3128 4425 
Q 3525 4100 3525 3541 
Q 3525 3141 3298 2862 
Q 3072 2584 2669 2484 
Q 3125 2378 3379 2068 
Q 3634 1759 3634 1313 
Q 3634 634 3220 271 
Q 2806 -91 2034 -91 
Q 1263 -91 848 271 
Q 434 634 434 1313 
Q 434 1759 690 2068 
Q 947 2378 1403 2484 
z
M 1172 3481 
Q 1172 3119 1398 2916 
Q 1625 2713 2034 2713 
Q 2441 2713 2670 2916 
Q 2900 3119 2900 3481 
Q 2900 3844 2670 4047 
Q 2441 4250 2034 4250 
Q 1625 4250 1398 4047 
Q 1172 3844 1172 3481 
z
" transform="scale(0.015625)"/>
       </defs>
       <use xlink:href="#DejaVuSans-38"/>
       <use xlink:href="#DejaVuSans-30" x="63.623047"/>
      </g>
     </g>
    </g>
   </g>
   <g id="matplotlib.axis_2">
    <g id="ytick_1">
     <g id="line2d_6">
      <defs>
       <path id="me19ea96b69" d="M 0 0 
L -3.5 0 
" style="stroke: #000000; stroke-width: 0.8"/>
      </defs>
      <g>
       <use xlink:href="#me19ea96b69" x="33.64" y="674.145661" style="stroke: #000000; stroke-width: 0.8"/>
      </g>
     </g>
     <g id="text_6">
      <!-- 0 -->
      <g transform="translate(20.2775 677.94488) scale(0.1 -0.1)">
       <use xlink:href="#DejaVuSans-30"/>
      </g>
     </g>
    </g>
    <g id="ytick_2">
     <g id="line2d_7">
      <g>
       <use xlink:href="#me19ea96b69" x="33.64" y="583.197865" style="stroke: #000000; stroke-width: 0.8"/>
      </g>
     </g>
     <g id="text_7">
      <!-- 5 -->
      <g transform="translate(20.2775 586.997083) scale(0.1 -0.1)">
       <defs>
        <path id="DejaVuSans-35" d="M 691 4666 
L 3169 4666 
L 3169 4134 
L 1269 4134 
L 1269 2991 
Q 1406 3038 1543 3061 
Q 1681 3084 1819 3084 
Q 2600 3084 3056 2656 
Q 3513 2228 3513 1497 
Q 3513 744 3044 326 
Q 2575 -91 1722 -91 
Q 1428 -91 1123 -41 
Q 819 9 494 109 
L 494 744 
Q 775 591 1075 516 
Q 1375 441 1709 441 
Q 2250 441 2565 725 
Q 2881 1009 2881 1497 
Q 2881 1984 2565 2268 
Q 2250 2553 1709 2553 
Q 1456 2553 1204 2497 
Q 953 2441 691 2322 
L 691 4666 
z
" transform="scale(0.015625)"/>
       </defs>
       <use xlink:href="#DejaVuSans-35"/>
      </g>
     </g>
    </g>
    <g id="ytick_3">
     <g id="line2d_8">
      <g>
       <use xlink:href="#me19ea96b69" x="33.64" y="492.250068" style="stroke: #000000; stroke-width: 0.8"/>
      </g>
     </g>
     <g id="text_8">
      <!-- 10 -->
      <g transform="translate(13.915 496.049287) scale(0.1 -0.1)">
       <defs>
        <path id="DejaVuSans-31" d="M 794 531 
L 1825 531 
L 1825 4091 
L 703 3866 
L 703 4441 
L 1819 4666 
L 2450 4666 
L 2450 531 
L 3481 531 
L 3481 0 
L 794 0 
L 794 531 
z
" transform="scale(0.015625)"/>
       </defs>
       <use xlink:href="#DejaVuSans-31"/>
       <use xlink:href="#DejaVuSans-30" x="63.623047"/>
      </g>
     </g>
    </g>
    <g id="ytick_4">
     <g id="line2d_9">
      <g>
       <use xlink:href="#me19ea96b69" x="33.64" y="401.302271" style="stroke: #000000; stroke-width: 0.8"/>
      </g>
     </g>
     <g id="text_9">
      <!-- 15 -->
      <g transform="translate(13.915 405.10149) scale(0.1 -0.1)">
       <use xlink:href="#DejaVuSans-31"/>
       <use xlink:href="#DejaVuSans-35" x="63.623047"/>
      </g>
     </g>
    </g>
    <g id="ytick_5">
     <g id="line2d_10">
      <g>
       <use xlink:href="#me19ea96b69" x="33.64" y="310.354475" style="stroke: #000000; stroke-width: 0.8"/>
      </g>
     </g>
     <g id="text_10">
      <!-- 20 -->
      <g transform="translate(13.915 314.153694) scale(0.1 -0.1)">
       <use xlink:href="#DejaVuSans-32"/>
       <use xlink:href="#DejaVuSans-30" x="63.623047"/>
      </g>
     </g>
    </g>
    <g id="ytick_6">
     <g id="line2d_11">
      <g>
       <use xlink:href="#me19ea96b69" x="33.64" y="219.406678" style="stroke: #000000; stroke-width: 0.8"/>
      </g>
     </g>
     <g id="text_11">
      <!-- 25 -->
      <g transform="translate(13.915 223.205897) scale(0.1 -0.1)">
       <use xlink:href="#DejaVuSans-32"/>
       <use xlink:href="#DejaVuSans-35" x="63.623047"/>
      </g>
     </g>
    </g>
    <g id="ytick_7">
     <g id="line2d_12">
      <g>
       <use xlink:href="#me19ea96b69" x="33.64" y="128.458882" style="stroke: #000000; stroke-width: 0.8"/>
      </g>
     </g>
     <g id="text_12">
      <!-- 30 -->
      <g transform="translate(13.915 132.258101) scale(0.1 -0.1)">
       <defs>
        <path id="DejaVuSans-33" d="M 2597 2516 
Q 3050 2419 3304 2112 
Q 3559 1806 3559 1356 
Q 3559 666 3084 287 
Q 2609 -91 1734 -91 
Q 1441 -91 1130 -33 
Q 819 25 488 141 
L 488 750 
Q 750 597 1062 519 
Q 1375 441 1716 441 
Q 2309 441 2620 675 
Q 2931 909 2931 1356 
Q 2931 1769 2642 2001 
Q 2353 2234 1838 2234 
L 1294 2234 
L 1294 2753 
L 1863 2753 
Q 2328 2753 2575 2939 
Q 2822 3125 2822 3475 
Q 2822 3834 2567 4026 
Q 2313 4219 1838 4219 
Q 1578 4219 1281 4162 
Q 984 4106 628 3988 
L 628 4550 
Q 988 4650 1302 4700 
Q 1616 4750 1894 4750 
Q 2613 4750 3031 4423 
Q 3450 4097 3450 3541 
Q 3450 3153 3228 2886 
Q 3006 2619 2597 2516 
z
" transform="scale(0.015625)"/>
       </defs>
       <use xlink:href="#DejaVuSans-33"/>
       <use xlink:href="#DejaVuSans-30" x="63.623047"/>
      </g>
     </g>
    </g>
    <g id="ytick_8">
     <g id="line2d_13">
      <g>
       <use xlink:href="#me19ea96b69" x="33.64" y="37.511085" style="stroke: #000000; stroke-width: 0.8"/>
      </g>
     </g>
     <g id="text_13">
      <!-- 35 -->
      <g transform="translate(13.915 41.310304) scale(0.1 -0.1)">
       <use xlink:href="#DejaVuSans-33"/>
       <use xlink:href="#DejaVuSans-35" x="63.623047"/>
      </g>
     </g>
    </g>
   </g>
   <g id="line2d_14">
    <path d="M 64.232727 644.12387 
L 71.431016 647.222105 
L 78.629305 649.088365 
L 85.827594 650.017706 
L 93.025882 650.694119 
L 100.224171 650.92001 
L 107.42246 652.652206 
L 114.620749 654.03397 
L 121.819037 655.1581 
L 129.017326 655.725201 
L 136.215615 656.406914 
L 143.413904 656.774379 
L 150.612193 657.003967 
L 157.810481 657.231208 
L 165.00877 657.230664 
L 172.207059 657.87091 
L 179.405348 658.147431 
L 186.603636 658.378931 
L 193.801925 658.557083 
L 201.000214 658.733638 
L 208.198503 658.931708 
L 215.396791 659.06507 
L 222.59508 658.993489 
L 229.793369 659.245514 
L 236.991658 659.397633 
L 244.189947 659.522366 
L 251.388235 659.697421 
L 258.586524 659.762335 
L 265.784813 659.664039 
L 272.983102 659.8855 
L 280.18139 659.921983 
L 287.379679 660.0655 
L 294.577968 659.800891 
L 301.776257 660.343582 
L 308.974545 660.093241 
L 316.172834 660.335468 
L 323.371123 659.863075 
L 330.569412 660.200095 
L 337.767701 660.463474 
L 344.965989 660.462937 
L 352.164278 660.405992 
L 359.362567 660.235704 
L 366.560856 660.584794 
L 373.759144 660.455611 
L 380.957433 660.788475 
L 388.155722 660.831723 
L 395.354011 660.670485 
L 402.552299 660.669666 
L 409.750588 660.361998 
L 416.948877 660.853973 
L 424.147166 660.74084 
L 431.345455 660.798719 
L 438.543743 660.65798 
L 445.742032 660.747828 
L 452.940321 660.895697 
L 460.13861 660.839085 
L 467.336898 661.047576 
L 474.535187 660.929952 
L 481.733476 660.958362 
L 488.931765 661.092378 
L 496.130053 660.99386 
L 503.328342 660.659811 
L 510.526631 660.910613 
L 517.72492 660.977312 
L 524.923209 661.156545 
L 532.121497 661.085296 
L 539.319786 661.084154 
L 546.518075 661.140418 
L 553.716364 661.204363 
L 560.914652 661.172403 
L 568.112941 661.074654 
L 575.31123 661.076264 
L 582.509519 661.051844 
L 589.707807 661.168415 
L 596.906096 661.122649 
L 604.104385 660.900496 
L 611.302674 660.895453 
L 618.500963 661.194849 
L 625.699251 661.313675 
L 632.89754 661.231744 
L 640.095829 661.113577 
L 647.294118 661.266727 
L 654.492406 661.170055 
L 661.690695 660.548804 
L 668.888984 661.330909 
L 676.087273 661.016204 
" clip-path="url(#p8c897e48e5)" style="fill: none; stroke: #ff0000; stroke-width: 1.5; stroke-linecap: square"/>
   </g>
   <g id="line2d_15">
    <path d="M 64.232727 63.2639 
L 71.431016 45.549091 
L 78.629305 71.286363 
L 85.827594 130.235796 
L 93.025882 162.747593 
L 100.224171 202.9439 
L 107.42246 215.828183 
L 114.620749 228.705111 
L 121.819037 234.871558 
L 129.017326 250.282384 
L 136.215615 270.523355 
L 143.413904 279.701781 
L 150.612193 296.792969 
L 157.810481 310.707034 
L 165.00877 327.313583 
L 172.207059 343.847067 
L 179.405348 347.306666 
L 186.603636 360.563491 
L 193.801925 371.600154 
L 201.000214 366.069333 
L 208.198503 378.184662 
L 215.396791 383.384191 
L 222.59508 393.836905 
L 229.793369 399.134584 
L 236.991658 401.839384 
L 244.189947 404.212893 
L 251.388235 415.420458 
L 258.586524 416.457317 
L 265.784813 419.691581 
L 272.983102 423.294327 
L 280.18139 436.42497 
L 287.379679 435.228016 
L 294.577968 439.832182 
L 301.776257 443.344568 
L 308.974545 449.490164 
L 316.172834 449.977474 
L 323.371123 456.639799 
L 330.569412 451.684861 
L 337.767701 457.625278 
L 344.965989 460.728762 
L 352.164278 465.26335 
L 359.362567 460.596336 
L 366.560856 468.26173 
L 373.759144 469.778405 
L 380.957433 473.390293 
L 388.155722 469.416115 
L 395.354011 478.279122 
L 402.552299 476.727319 
L 409.750588 478.191017 
L 416.948877 475.348673 
L 424.147166 481.77914 
L 431.345455 483.332262 
L 438.543743 486.178908 
L 445.742032 480.986317 
L 452.940321 485.019822 
L 460.13861 488.631189 
L 467.336898 484.35821 
L 474.535187 486.278895 
L 481.733476 490.108695 
L 488.931765 487.440688 
L 496.130053 490.679773 
L 503.328342 494.894189 
L 510.526631 493.381364 
L 517.72492 489.243397 
L 524.923209 493.520625 
L 532.121497 491.895792 
L 539.319786 497.401044 
L 546.518075 491.30369 
L 553.716364 496.966122 
L 560.914652 493.811551 
L 568.112941 494.069308 
L 575.31123 494.956655 
L 582.509519 495.563728 
L 589.707807 493.451585 
L 596.906096 493.390784 
L 604.104385 496.511789 
L 611.302674 497.19576 
L 618.500963 496.080562 
L 625.699251 496.236146 
L 632.89754 496.739727 
L 640.095829 499.063642 
L 647.294118 498.559783 
L 654.492406 498.026313 
L 661.690695 496.902094 
L 668.888984 500.305958 
L 676.087273 498.651895 
" clip-path="url(#p8c897e48e5)" style="fill: none; stroke: #008000; stroke-width: 1.5; stroke-linecap: square"/>
   </g>
   <g id="patch_3">
    <path d="M 33.64 692.12 
L 33.64 14.76 
" style="fill: none; stroke: #000000; stroke-width: 0.8; stroke-linejoin: miter; stroke-linecap: square"/>
   </g>
   <g id="patch_4">
    <path d="M 706.68 692.12 
L 706.68 14.76 
" style="fill: none; stroke: #000000; stroke-width: 0.8; stroke-linejoin: miter; stroke-linecap: square"/>
   </g>
   <g id="patch_5">
    <path d="M 33.64 692.12 
L 706.68 692.12 
" style="fill: none; stroke: #000000; stroke-width: 0.8; stroke-linejoin: miter; stroke-linecap: square"/>
   </g>
   <g id="patch_6">
    <path d="M 33.64 14.76 
L 706.68 14.76 
" style="fill: none; stroke: #000000; stroke-width: 0.8; stroke-linejoin: miter; stroke-linecap: square"/>
   </g>
   <g id="text_14">
    <!-- svhn -->
    <g transform="translate(355.878125 8.76) scale(0.12 -0.12)">
     <defs>
      <path id="DejaVuSans-73" d="M 2834 3397 
L 2834 2853 
Q 2591 2978 2328 3040 
Q 2066 3103 1784 3103 
Q 1356 3103 1142 2972 
Q 928 2841 928 2578 
Q 928 2378 1081 2264 
Q 1234 2150 1697 2047 
L 1894 2003 
Q 2506 1872 2764 1633 
Q 3022 1394 3022 966 
Q 3022 478 2636 193 
Q 2250 -91 1575 -91 
Q 1294 -91 989 -36 
Q 684 19 347 128 
L 347 722 
Q 666 556 975 473 
Q 1284 391 1588 391 
Q 1994 391 2212 530 
Q 2431 669 2431 922 
Q 2431 1156 2273 1281 
Q 2116 1406 1581 1522 
L 1381 1569 
Q 847 1681 609 1914 
Q 372 2147 372 2553 
Q 372 3047 722 3315 
Q 1072 3584 1716 3584 
Q 2034 3584 2315 3537 
Q 2597 3491 2834 3397 
z
" transform="scale(0.015625)"/>
      <path id="DejaVuSans-76" d="M 191 3500 
L 800 3500 
L 1894 563 
L 2988 3500 
L 3597 3500 
L 2284 0 
L 1503 0 
L 191 3500 
z
" transform="scale(0.015625)"/>
      <path id="DejaVuSans-68" d="M 3513 2113 
L 3513 0 
L 2938 0 
L 2938 2094 
Q 2938 2591 2744 2837 
Q 2550 3084 2163 3084 
Q 1697 3084 1428 2787 
Q 1159 2491 1159 1978 
L 1159 0 
L 581 0 
L 581 4863 
L 1159 4863 
L 1159 2956 
Q 1366 3272 1645 3428 
Q 1925 3584 2291 3584 
Q 2894 3584 3203 3211 
Q 3513 2838 3513 2113 
z
" transform="scale(0.015625)"/>
      <path id="DejaVuSans-6e" d="M 3513 2113 
L 3513 0 
L 2938 0 
L 2938 2094 
Q 2938 2591 2744 2837 
Q 2550 3084 2163 3084 
Q 1697 3084 1428 2787 
Q 1159 2491 1159 1978 
L 1159 0 
L 581 0 
L 581 3500 
L 1159 3500 
L 1159 2956 
Q 1366 3272 1645 3428 
Q 1925 3584 2291 3584 
Q 2894 3584 3203 3211 
Q 3513 2838 3513 2113 
z
" transform="scale(0.015625)"/>
     </defs>
     <use xlink:href="#DejaVuSans-73"/>
     <use xlink:href="#DejaVuSans-76" x="52.099609"/>
     <use xlink:href="#DejaVuSans-68" x="111.279297"/>
     <use xlink:href="#DejaVuSans-6e" x="174.658203"/>
    </g>
   </g>
  </g>
  <g id="axes_2">
   <g id="patch_7">
    <path d="M 748.24 692.12 
L 1421.28 692.12 
L 1421.28 14.76 
L 748.24 14.76 
z
" style="fill: #ffffff"/>
   </g>
   <g id="matplotlib.axis_3">
    <g id="xtick_6">
     <g id="line2d_16">
      <g>
       <use xlink:href="#m2fc02b0ae8" x="771.634439" y="692.12" style="stroke: #000000; stroke-width: 0.8"/>
      </g>
     </g>
     <g id="text_15">
      <!-- 0 -->
      <g transform="translate(768.453189 706.718438) scale(0.1 -0.1)">
       <use xlink:href="#DejaVuSans-30"/>
      </g>
     </g>
    </g>
    <g id="xtick_7">
     <g id="line2d_17">
      <g>
       <use xlink:href="#m2fc02b0ae8" x="915.600214" y="692.12" style="stroke: #000000; stroke-width: 0.8"/>
      </g>
     </g>
     <g id="text_16">
      <!-- 20 -->
      <g transform="translate(909.237714 706.718438) scale(0.1 -0.1)">
       <use xlink:href="#DejaVuSans-32"/>
       <use xlink:href="#DejaVuSans-30" x="63.623047"/>
      </g>
     </g>
    </g>
    <g id="xtick_8">
     <g id="line2d_18">
      <g>
       <use xlink:href="#m2fc02b0ae8" x="1059.565989" y="692.12" style="stroke: #000000; stroke-width: 0.8"/>
      </g>
     </g>
     <g id="text_17">
      <!-- 40 -->
      <g transform="translate(1053.203489 706.718438) scale(0.1 -0.1)">
       <use xlink:href="#DejaVuSans-34"/>
       <use xlink:href="#DejaVuSans-30" x="63.623047"/>
      </g>
     </g>
    </g>
    <g id="xtick_9">
     <g id="line2d_19">
      <g>
       <use xlink:href="#m2fc02b0ae8" x="1203.531765" y="692.12" style="stroke: #000000; stroke-width: 0.8"/>
      </g>
     </g>
     <g id="text_18">
      <!-- 60 -->
      <g transform="translate(1197.169265 706.718438) scale(0.1 -0.1)">
       <use xlink:href="#DejaVuSans-36"/>
       <use xlink:href="#DejaVuSans-30" x="63.623047"/>
      </g>
     </g>
    </g>
    <g id="xtick_10">
     <g id="line2d_20">
      <g>
       <use xlink:href="#m2fc02b0ae8" x="1347.49754" y="692.12" style="stroke: #000000; stroke-width: 0.8"/>
      </g>
     </g>
     <g id="text_19">
      <!-- 80 -->
      <g transform="translate(1341.13504 706.718438) scale(0.1 -0.1)">
       <use xlink:href="#DejaVuSans-38"/>
       <use xlink:href="#DejaVuSans-30" x="63.623047"/>
      </g>
     </g>
    </g>
   </g>
   <g id="matplotlib.axis_4">
    <g id="ytick_9">
     <g id="line2d_21">
      <g>
       <use xlink:href="#me19ea96b69" x="748.24" y="663.831087" style="stroke: #000000; stroke-width: 0.8"/>
      </g>
     </g>
     <g id="text_20">
      <!-- 0 -->
      <g transform="translate(734.8775 667.630306) scale(0.1 -0.1)">
       <use xlink:href="#DejaVuSans-30"/>
      </g>
     </g>
    </g>
    <g id="ytick_10">
     <g id="line2d_22">
      <g>
       <use xlink:href="#me19ea96b69" x="748.24" y="580.141221" style="stroke: #000000; stroke-width: 0.8"/>
      </g>
     </g>
     <g id="text_21">
      <!-- 10 -->
      <g transform="translate(728.515 583.94044) scale(0.1 -0.1)">
       <use xlink:href="#DejaVuSans-31"/>
       <use xlink:href="#DejaVuSans-30" x="63.623047"/>
      </g>
     </g>
    </g>
    <g id="ytick_11">
     <g id="line2d_23">
      <g>
       <use xlink:href="#me19ea96b69" x="748.24" y="496.451356" style="stroke: #000000; stroke-width: 0.8"/>
      </g>
     </g>
     <g id="text_22">
      <!-- 20 -->
      <g transform="translate(728.515 500.250575) scale(0.1 -0.1)">
       <use xlink:href="#DejaVuSans-32"/>
       <use xlink:href="#DejaVuSans-30" x="63.623047"/>
      </g>
     </g>
    </g>
    <g id="ytick_12">
     <g id="line2d_24">
      <g>
       <use xlink:href="#me19ea96b69" x="748.24" y="412.76149" style="stroke: #000000; stroke-width: 0.8"/>
      </g>
     </g>
     <g id="text_23">
      <!-- 30 -->
      <g transform="translate(728.515 416.560709) scale(0.1 -0.1)">
       <use xlink:href="#DejaVuSans-33"/>
       <use xlink:href="#DejaVuSans-30" x="63.623047"/>
      </g>
     </g>
    </g>
    <g id="ytick_13">
     <g id="line2d_25">
      <g>
       <use xlink:href="#me19ea96b69" x="748.24" y="329.071625" style="stroke: #000000; stroke-width: 0.8"/>
      </g>
     </g>
     <g id="text_24">
      <!-- 40 -->
      <g transform="translate(728.515 332.870843) scale(0.1 -0.1)">
       <use xlink:href="#DejaVuSans-34"/>
       <use xlink:href="#DejaVuSans-30" x="63.623047"/>
      </g>
     </g>
    </g>
    <g id="ytick_14">
     <g id="line2d_26">
      <g>
       <use xlink:href="#me19ea96b69" x="748.24" y="245.381759" style="stroke: #000000; stroke-width: 0.8"/>
      </g>
     </g>
     <g id="text_25">
      <!-- 50 -->
      <g transform="translate(728.515 249.180978) scale(0.1 -0.1)">
       <use xlink:href="#DejaVuSans-35"/>
       <use xlink:href="#DejaVuSans-30" x="63.623047"/>
      </g>
     </g>
    </g>
    <g id="ytick_15">
     <g id="line2d_27">
      <g>
       <use xlink:href="#me19ea96b69" x="748.24" y="161.691893" style="stroke: #000000; stroke-width: 0.8"/>
      </g>
     </g>
     <g id="text_26">
      <!-- 60 -->
      <g transform="translate(728.515 165.491112) scale(0.1 -0.1)">
       <use xlink:href="#DejaVuSans-36"/>
       <use xlink:href="#DejaVuSans-30" x="63.623047"/>
      </g>
     </g>
    </g>
    <g id="ytick_16">
     <g id="line2d_28">
      <g>
       <use xlink:href="#me19ea96b69" x="748.24" y="78.002028" style="stroke: #000000; stroke-width: 0.8"/>
      </g>
     </g>
     <g id="text_27">
      <!-- 70 -->
      <g transform="translate(728.515 81.801246) scale(0.1 -0.1)">
       <defs>
        <path id="DejaVuSans-37" d="M 525 4666 
L 3525 4666 
L 3525 4397 
L 1831 0 
L 1172 0 
L 2766 4134 
L 525 4134 
L 525 4666 
z
" transform="scale(0.015625)"/>
       </defs>
       <use xlink:href="#DejaVuSans-37"/>
       <use xlink:href="#DejaVuSans-30" x="63.623047"/>
      </g>
     </g>
    </g>
   </g>
   <g id="line2d_29">
    <path d="M 778.832727 656.058833 
L 786.031016 657.547029 
L 793.229305 658.346229 
L 800.427594 658.888105 
L 807.625882 659.145 
L 814.824171 659.301595 
L 822.02246 659.521881 
L 829.220749 659.731149 
L 836.419037 659.837032 
L 843.617326 659.888411 
L 850.815615 660.116174 
L 858.013904 660.110876 
L 865.212193 660.27562 
L 872.410481 660.316812 
L 879.60877 660.478523 
L 886.807059 660.482076 
L 894.005348 660.541759 
L 901.203636 660.725483 
L 908.401925 660.75449 
L 915.600214 660.745445 
L 922.798503 660.622476 
L 929.996791 660.835256 
L 937.19508 660.900189 
L 944.393369 660.953076 
L 951.591658 660.883673 
L 958.789947 660.884053 
L 965.988235 660.998543 
L 973.186524 661.071216 
L 980.384813 660.772807 
L 987.583102 661.067063 
L 994.78139 661.112013 
L 1001.979679 661.12448 
L 1009.177968 661.135528 
L 1016.376257 661.114545 
L 1023.574545 661.139035 
L 1030.772834 661.102854 
L 1037.971123 661.192439 
L 1045.169412 661.212635 
L 1052.367701 661.161169 
L 1059.565989 661.182192 
L 1066.764278 661.160495 
L 1073.962567 661.190628 
L 1081.160856 661.196217 
L 1088.359144 661.1857 
L 1095.557433 661.194348 
L 1102.755722 661.198787 
L 1109.954011 661.195002 
L 1117.152299 661.224715 
L 1124.350588 661.232744 
L 1131.548877 661.20742 
L 1138.747166 661.228197 
L 1145.945455 661.136513 
L 1153.143743 661.216814 
L 1160.342032 661.144403 
L 1167.540321 661.284002 
L 1174.73861 661.262563 
L 1181.936898 661.244589 
L 1189.135187 661.285498 
L 1196.333476 661.310258 
L 1203.531765 661.273727 
L 1210.730053 661.279165 
L 1217.928342 661.297801 
L 1225.126631 661.2766 
L 1232.32492 661.182129 
L 1239.523209 661.300136 
L 1246.721497 661.316759 
L 1253.919786 661.330909 
L 1261.118075 661.280295 
L 1268.316364 661.240167 
L 1275.514652 661.279846 
" clip-path="url(#p5d17ba0344)" style="fill: none; stroke: #ff0000; stroke-width: 1.5; stroke-linecap: square"/>
   </g>
   <g id="line2d_30">
    <path d="M 778.832727 100.810121 
L 786.031016 51.817147 
L 793.229305 45.549091 
L 800.427594 71.251518 
L 807.625882 80.877781 
L 814.824171 108.467432 
L 822.02246 138.024439 
L 829.220749 178.800645 
L 836.419037 214.193697 
L 843.617326 240.613099 
L 850.815615 267.607761 
L 858.013904 285.531339 
L 865.212193 303.171038 
L 872.410481 319.209179 
L 879.60877 337.062937 
L 886.807059 351.131073 
L 894.005348 361.06519 
L 901.203636 383.028512 
L 908.401925 391.346419 
L 915.600214 408.888922 
L 922.798503 413.645162 
L 929.996791 433.067003 
L 937.19508 438.702367 
L 944.393369 452.154524 
L 951.591658 453.907454 
L 958.789947 461.734048 
L 965.988235 470.932434 
L 973.186524 476.996744 
L 980.384813 476.123336 
L 987.583102 487.625153 
L 994.78139 491.335797 
L 1001.979679 495.028787 
L 1009.177968 500.198411 
L 1016.376257 504.932815 
L 1023.574545 507.853024 
L 1030.772834 509.592147 
L 1037.971123 515.525643 
L 1045.169412 519.603124 
L 1052.367701 525.248879 
L 1059.565989 526.321596 
L 1066.764278 527.769433 
L 1073.962567 530.548645 
L 1081.160856 533.48042 
L 1088.359144 536.069717 
L 1095.557433 540.447964 
L 1102.755722 542.59157 
L 1109.954011 544.563084 
L 1117.152299 549.337586 
L 1124.350588 549.622701 
L 1131.548877 553.116542 
L 1138.747166 553.291013 
L 1145.945455 556.019783 
L 1153.143743 558.396196 
L 1160.342032 559.851599 
L 1167.540321 562.58626 
L 1174.73861 563.519592 
L 1181.936898 567.016912 
L 1189.135187 568.997101 
L 1196.333476 571.118392 
L 1203.531765 574.274823 
L 1210.730053 575.69329 
L 1217.928342 576.803224 
L 1225.126631 579.032365 
L 1232.32492 583.076148 
L 1239.523209 582.32918 
L 1246.721497 584.428913 
L 1253.919786 585.875585 
L 1261.118075 585.632395 
L 1268.316364 588.247312 
L 1275.514652 589.885935 
" clip-path="url(#p5d17ba0344)" style="fill: none; stroke: #008000; stroke-width: 1.5; stroke-linecap: square"/>
   </g>
   <g id="patch_8">
    <path d="M 748.24 692.12 
L 748.24 14.76 
" style="fill: none; stroke: #000000; stroke-width: 0.8; stroke-linejoin: miter; stroke-linecap: square"/>
   </g>
   <g id="patch_9">
    <path d="M 1421.28 692.12 
L 1421.28 14.76 
" style="fill: none; stroke: #000000; stroke-width: 0.8; stroke-linejoin: miter; stroke-linecap: square"/>
   </g>
   <g id="patch_10">
    <path d="M 748.24 692.12 
L 1421.28 692.12 
" style="fill: none; stroke: #000000; stroke-width: 0.8; stroke-linejoin: miter; stroke-linecap: square"/>
   </g>
   <g id="patch_11">
    <path d="M 748.24 14.76 
L 1421.28 14.76 
" style="fill: none; stroke: #000000; stroke-width: 0.8; stroke-linejoin: miter; stroke-linecap: square"/>
   </g>
   <g id="text_28">
    <!-- mnist -->
    <g transform="translate(1067.968437 8.76) scale(0.12 -0.12)">
     <defs>
      <path id="DejaVuSans-6d" d="M 3328 2828 
Q 3544 3216 3844 3400 
Q 4144 3584 4550 3584 
Q 5097 3584 5394 3201 
Q 5691 2819 5691 2113 
L 5691 0 
L 5113 0 
L 5113 2094 
Q 5113 2597 4934 2840 
Q 4756 3084 4391 3084 
Q 3944 3084 3684 2787 
Q 3425 2491 3425 1978 
L 3425 0 
L 2847 0 
L 2847 2094 
Q 2847 2600 2669 2842 
Q 2491 3084 2119 3084 
Q 1678 3084 1418 2786 
Q 1159 2488 1159 1978 
L 1159 0 
L 581 0 
L 581 3500 
L 1159 3500 
L 1159 2956 
Q 1356 3278 1631 3431 
Q 1906 3584 2284 3584 
Q 2666 3584 2933 3390 
Q 3200 3197 3328 2828 
z
" transform="scale(0.015625)"/>
      <path id="DejaVuSans-69" d="M 603 3500 
L 1178 3500 
L 1178 0 
L 603 0 
L 603 3500 
z
M 603 4863 
L 1178 4863 
L 1178 4134 
L 603 4134 
L 603 4863 
z
" transform="scale(0.015625)"/>
      <path id="DejaVuSans-74" d="M 1172 4494 
L 1172 3500 
L 2356 3500 
L 2356 3053 
L 1172 3053 
L 1172 1153 
Q 1172 725 1289 603 
Q 1406 481 1766 481 
L 2356 481 
L 2356 0 
L 1766 0 
Q 1100 0 847 248 
Q 594 497 594 1153 
L 594 3053 
L 172 3053 
L 172 3500 
L 594 3500 
L 594 4494 
L 1172 4494 
z
" transform="scale(0.015625)"/>
     </defs>
     <use xlink:href="#DejaVuSans-6d"/>
     <use xlink:href="#DejaVuSans-6e" x="97.412109"/>
     <use xlink:href="#DejaVuSans-69" x="160.791016"/>
     <use xlink:href="#DejaVuSans-73" x="188.574219"/>
     <use xlink:href="#DejaVuSans-74" x="240.673828"/>
    </g>
   </g>
  </g>
  <g id="text_29">
   <!-- epoch -->
   <g transform="translate(704.771875 720) scale(0.1 -0.1)">
    <defs>
     <path id="DejaVuSans-65" d="M 3597 1894 
L 3597 1613 
L 953 1613 
Q 991 1019 1311 708 
Q 1631 397 2203 397 
Q 2534 397 2845 478 
Q 3156 559 3463 722 
L 3463 178 
Q 3153 47 2828 -22 
Q 2503 -91 2169 -91 
Q 1331 -91 842 396 
Q 353 884 353 1716 
Q 353 2575 817 3079 
Q 1281 3584 2069 3584 
Q 2775 3584 3186 3129 
Q 3597 2675 3597 1894 
z
M 3022 2063 
Q 3016 2534 2758 2815 
Q 2500 3097 2075 3097 
Q 1594 3097 1305 2825 
Q 1016 2553 972 2059 
L 3022 2063 
z
" transform="scale(0.015625)"/>
     <path id="DejaVuSans-70" d="M 1159 525 
L 1159 -1331 
L 581 -1331 
L 581 3500 
L 1159 3500 
L 1159 2969 
Q 1341 3281 1617 3432 
Q 1894 3584 2278 3584 
Q 2916 3584 3314 3078 
Q 3713 2572 3713 1747 
Q 3713 922 3314 415 
Q 2916 -91 2278 -91 
Q 1894 -91 1617 61 
Q 1341 213 1159 525 
z
M 3116 1747 
Q 3116 2381 2855 2742 
Q 2594 3103 2138 3103 
Q 1681 3103 1420 2742 
Q 1159 2381 1159 1747 
Q 1159 1113 1420 752 
Q 1681 391 2138 391 
Q 2594 391 2855 752 
Q 3116 1113 3116 1747 
z
" transform="scale(0.015625)"/>
     <path id="DejaVuSans-6f" d="M 1959 3097 
Q 1497 3097 1228 2736 
Q 959 2375 959 1747 
Q 959 1119 1226 758 
Q 1494 397 1959 397 
Q 2419 397 2687 759 
Q 2956 1122 2956 1747 
Q 2956 2369 2687 2733 
Q 2419 3097 1959 3097 
z
M 1959 3584 
Q 2709 3584 3137 3096 
Q 3566 2609 3566 1747 
Q 3566 888 3137 398 
Q 2709 -91 1959 -91 
Q 1206 -91 779 398 
Q 353 888 353 1747 
Q 353 2609 779 3096 
Q 1206 3584 1959 3584 
z
" transform="scale(0.015625)"/>
     <path id="DejaVuSans-63" d="M 3122 3366 
L 3122 2828 
Q 2878 2963 2633 3030 
Q 2388 3097 2138 3097 
Q 1578 3097 1268 2742 
Q 959 2388 959 1747 
Q 959 1106 1268 751 
Q 1578 397 2138 397 
Q 2388 397 2633 464 
Q 2878 531 3122 666 
L 3122 134 
Q 2881 22 2623 -34 
Q 2366 -91 2075 -91 
Q 1284 -91 818 406 
Q 353 903 353 1747 
Q 353 2603 823 3093 
Q 1294 3584 2113 3584 
Q 2378 3584 2631 3529 
Q 2884 3475 3122 3366 
z
" transform="scale(0.015625)"/>
    </defs>
    <use xlink:href="#DejaVuSans-65"/>
    <use xlink:href="#DejaVuSans-70" x="61.523438"/>
    <use xlink:href="#DejaVuSans-6f" x="125"/>
    <use xlink:href="#DejaVuSans-63" x="186.181641"/>
    <use xlink:href="#DejaVuSans-68" x="241.162109"/>
   </g>
  </g>
  <g id="legend_1">
   <g id="patch_12">
    <path d="M 1262.815625 22.95625 
L 1433 22.95625 
Q 1435 22.95625 1435 20.95625 
L 1435 7 
Q 1435 5 1433 5 
L 1262.815625 5 
Q 1260.815625 5 1260.815625 7 
L 1260.815625 20.95625 
Q 1260.815625 22.95625 1262.815625 22.95625 
z
" style="fill: #ffffff; opacity: 0.8; stroke: #cccccc; stroke-linejoin: miter"/>
   </g>
   <g id="line2d_31">
    <path d="M 1264.815625 13.098437 
L 1274.815625 13.098437 
L 1284.815625 13.098437 
" style="fill: none; stroke: #ff0000; stroke-width: 1.5; stroke-linecap: square"/>
   </g>
   <g id="text_30">
    <!-- val_loss -->
    <g transform="translate(1292.815625 16.598437) scale(0.1 -0.1)">
     <defs>
      <path id="DejaVuSans-61" d="M 2194 1759 
Q 1497 1759 1228 1600 
Q 959 1441 959 1056 
Q 959 750 1161 570 
Q 1363 391 1709 391 
Q 2188 391 2477 730 
Q 2766 1069 2766 1631 
L 2766 1759 
L 2194 1759 
z
M 3341 1997 
L 3341 0 
L 2766 0 
L 2766 531 
Q 2569 213 2275 61 
Q 1981 -91 1556 -91 
Q 1019 -91 701 211 
Q 384 513 384 1019 
Q 384 1609 779 1909 
Q 1175 2209 1959 2209 
L 2766 2209 
L 2766 2266 
Q 2766 2663 2505 2880 
Q 2244 3097 1772 3097 
Q 1472 3097 1187 3025 
Q 903 2953 641 2809 
L 641 3341 
Q 956 3463 1253 3523 
Q 1550 3584 1831 3584 
Q 2591 3584 2966 3190 
Q 3341 2797 3341 1997 
z
" transform="scale(0.015625)"/>
      <path id="DejaVuSans-6c" d="M 603 4863 
L 1178 4863 
L 1178 0 
L 603 0 
L 603 4863 
z
" transform="scale(0.015625)"/>
      <path id="DejaVuSans-5f" d="M 3263 -1063 
L 3263 -1509 
L -63 -1509 
L -63 -1063 
L 3263 -1063 
z
" transform="scale(0.015625)"/>
     </defs>
     <use xlink:href="#DejaVuSans-76"/>
     <use xlink:href="#DejaVuSans-61" x="59.179688"/>
     <use xlink:href="#DejaVuSans-6c" x="120.458984"/>
     <use xlink:href="#DejaVuSans-5f" x="148.242188"/>
     <use xlink:href="#DejaVuSans-6c" x="198.242188"/>
     <use xlink:href="#DejaVuSans-6f" x="226.025391"/>
     <use xlink:href="#DejaVuSans-73" x="287.207031"/>
     <use xlink:href="#DejaVuSans-73" x="339.306641"/>
    </g>
   </g>
   <g id="line2d_32">
    <path d="M 1351.95625 13.098437 
L 1361.95625 13.098437 
L 1371.95625 13.098437 
" style="fill: none; stroke: #008000; stroke-width: 1.5; stroke-linecap: square"/>
   </g>
   <g id="text_31">
    <!-- sharpness -->
    <g transform="translate(1379.95625 16.598437) scale(0.1 -0.1)">
     <defs>
      <path id="DejaVuSans-72" d="M 2631 2963 
Q 2534 3019 2420 3045 
Q 2306 3072 2169 3072 
Q 1681 3072 1420 2755 
Q 1159 2438 1159 1844 
L 1159 0 
L 581 0 
L 581 3500 
L 1159 3500 
L 1159 2956 
Q 1341 3275 1631 3429 
Q 1922 3584 2338 3584 
Q 2397 3584 2469 3576 
Q 2541 3569 2628 3553 
L 2631 2963 
z
" transform="scale(0.015625)"/>
     </defs>
     <use xlink:href="#DejaVuSans-73"/>
     <use xlink:href="#DejaVuSans-68" x="52.099609"/>
     <use xlink:href="#DejaVuSans-61" x="115.478516"/>
     <use xlink:href="#DejaVuSans-72" x="176.757812"/>
     <use xlink:href="#DejaVuSans-70" x="217.871094"/>
     <use xlink:href="#DejaVuSans-6e" x="281.347656"/>
     <use xlink:href="#DejaVuSans-65" x="344.726562"/>
     <use xlink:href="#DejaVuSans-73" x="406.25"/>
     <use xlink:href="#DejaVuSans-73" x="458.349609"/>
    </g>
   </g>
  </g>
 </g>
 <defs>
  <clipPath id="p8c897e48e5">
   <rect x="33.64" y="14.76" width="673.04" height="677.36"/>
  </clipPath>
  <clipPath id="p5d17ba0344">
   <rect x="748.24" y="14.76" width="673.04" height="677.36"/>
  </clipPath>
 </defs>
</svg>
